<?xml version="1.0" standalone="no"?>
<!DOCTYPE svg PUBLIC "-//W3C//DTD SVG 20010904//EN"
 "http://www.w3.org/TR/2001/REC-SVG-20010904/DTD/svg10.dtd">
<svg version="1.0" xmlns="http://www.w3.org/2000/svg"
 width="64.000000pt" height="64.000000pt" viewBox="0 0 64.000000 64.000000"
 preserveAspectRatio="xMidYMid meet">

<g transform="translate(0.000000,64.000000) scale(0.100000,-0.100000)"
fill="#000000" stroke="none">
<path d="M32 628 c-7 -7 -12 -28 -12 -47 0 -39 16 -32 22 9 l3 25 214 0 c232
0 263 -8 179 -44 -37 -16 -47 -26 -62 -65 -17 -44 -17 -48 0 -92 11 -29 26
-49 41 -55 21 -8 23 -14 23 -85 0 -72 1 -76 20 -71 20 5 21 2 18 -86 l-3 -92
-215 0 -215 0 -3 245 c-1 143 -6 248 -12 254 -7 7 -10 -78 -10 -245 0 -185 3
-258 12 -267 9 -9 73 -12 224 -12 180 0 215 2 228 16 12 12 16 37 16 104 0 83
1 88 20 83 18 -5 20 0 20 56 0 34 -4 61 -10 61 -5 0 -10 -19 -10 -43 0 -42 0
-43 -35 -43 l-35 0 0 53 c0 51 1 53 23 48 12 -3 36 1 52 9 17 9 36 16 43 16 7
0 17 12 22 28 6 15 15 37 22 49 8 17 7 32 -8 68 -16 39 -27 51 -61 66 -24 10
-43 23 -43 28 0 5 -7 17 -16 25 -13 14 -48 16 -228 16 -151 0 -215 -3 -224
-12z m486 -67 c9 -5 25 -12 35 -15 9 -3 20 -14 23 -23 3 -10 11 -28 17 -40 7
-17 7 -29 0 -45 -6 -13 -14 -31 -17 -41 -3 -9 -14 -20 -23 -23 -10 -3 -28 -11
-40 -17 -17 -7 -29 -7 -45 0 -13 6 -31 14 -41 17 -9 3 -20 14 -23 23 -3 10
-10 26 -16 37 -6 13 -6 32 4 63 10 36 18 46 41 50 15 3 30 10 33 14 7 12 30
11 52 0z"/>
<path d="M462 510 c-12 -10 -28 -20 -35 -23 -9 -3 -9 -7 0 -18 6 -8 13 -25 15
-39 3 -22 8 -25 48 -25 39 0 45 3 46 23 1 12 7 28 13 36 10 12 8 17 -11 27
-13 6 -27 18 -31 25 -10 18 -17 17 -45 -6z m50 -24 c25 -19 12 -53 -22 -58
-24 -4 -29 0 -33 21 -3 16 1 30 11 38 21 15 23 15 44 -1z"/>
<path d="M218 554 c-9 -19 -9 -33 0 -56 10 -28 9 -33 -13 -50 -27 -21 -33 -56
-13 -76 17 -17 123 -16 137 2 15 18 4 64 -20 79 -15 9 -17 19 -12 54 7 49 -7
73 -43 73 -16 0 -28 -8 -36 -26z m62 -3 c0 -5 -10 -12 -22 -14 l-23 -4 23 -8
c29 -10 29 -37 0 -33 -39 5 -37 68 2 68 11 0 20 -4 20 -9z m-10 -91 c0 -5 -4
-10 -10 -10 -5 0 -10 5 -10 10 0 6 5 10 10 10 6 0 10 -4 10 -10z m41 -37 c25
-25 2 -43 -56 -43 -51 0 -55 2 -55 23 0 13 2 26 5 29 10 10 94 3 106 -9z"/>
<path d="M105 310 c4 -6 67 -10 156 -10 93 0 149 4 149 10 0 6 -59 10 -156 10
-101 0 -153 -3 -149 -10z"/>
<path d="M105 260 c4 -6 67 -10 156 -10 93 0 149 4 149 10 0 6 -59 10 -156 10
-101 0 -153 -3 -149 -10z"/>
<path d="M100 210 c0 -6 58 -10 155 -10 97 0 155 4 155 10 0 6 -58 10 -155 10
-97 0 -155 -4 -155 -10z"/>
<path d="M100 160 c0 -6 58 -10 155 -10 97 0 155 4 155 10 0 6 -58 10 -155 10
-97 0 -155 -4 -155 -10z"/>
<path d="M100 110 c0 -6 58 -10 155 -10 97 0 155 4 155 10 0 6 -58 10 -155 10
-97 0 -155 -4 -155 -10z"/>
<path d="M100 60 c0 -6 58 -10 155 -10 97 0 155 4 155 10 0 6 -58 10 -155 10
-97 0 -155 -4 -155 -10z"/>
</g>
</svg>
