<?xml version="1.0" standalone="no"?>
<!DOCTYPE svg PUBLIC "-//W3C//DTD SVG 20010904//EN"
 "http://www.w3.org/TR/2001/REC-SVG-20010904/DTD/svg10.dtd">
<svg version="1.0" xmlns="http://www.w3.org/2000/svg"
 width="512.000000pt" height="512.000000pt" viewBox="0 0 512.000000 512.000000"
 preserveAspectRatio="xMidYMid meet">

<g transform="translate(0.000000,512.000000) scale(0.100000,-0.100000)"
fill="#000000" stroke="none">
<path d="M2360 5110 c-386 -48 -746 -210 -1023 -459 -180 -163 -311 -334 -417
-546 -180 -359 -236 -731 -170 -1121 120 -705 678 -1686 1553 -2735 180 -215
215 -249 259 -249 40 0 89 49 277 275 609 732 1090 1477 1335 2068 215 519
269 897 185 1310 -97 478 -395 909 -815 1180 -183 118 -443 220 -662 258 -134
23 -404 33 -522 19z m351 -191 c142 -14 234 -34 370 -79 262 -87 476 -224 673
-431 369 -388 523 -925 416 -1451 -66 -324 -252 -762 -504 -1193 -180 -306
-527 -807 -792 -1141 -133 -169 -306 -374 -315 -374 -15 0 -302 354 -490 605
-654 871 -1038 1611 -1135 2190 -23 140 -21 366 5 515 103 593 530 1091 1098
1280 236 78 446 103 674 79z"/>
<path d="M2408 4184 c-336 -60 -605 -326 -673 -663 -26 -128 -17 -297 22 -418
92 -280 314 -490 598 -564 112 -30 298 -29 410 0 379 100 635 430 635 817 0
526 -474 922 -992 828z m262 -188 c206 -37 376 -163 469 -349 54 -106 74 -205
68 -322 -14 -268 -178 -487 -435 -583 -90 -34 -266 -42 -362 -18 -194 49 -351
176 -434 351 -186 387 47 843 469 920 91 17 134 17 225 1z"/>
</g>
</svg>
