<?xml version="1.0" standalone="no"?>
<!DOCTYPE svg PUBLIC "-//W3C//DTD SVG 20010904//EN"
 "http://www.w3.org/TR/2001/REC-SVG-20010904/DTD/svg10.dtd">
<svg version="1.0" xmlns="http://www.w3.org/2000/svg"
 width="512.000000pt" height="512.000000pt" viewBox="0 0 512.000000 512.000000"
 preserveAspectRatio="xMidYMid meet">

<g transform="translate(0.000000,512.000000) scale(0.100000,-0.100000)"
fill="#ffffff" stroke="none">
<path d="M1205 5106 c-164 -40 -296 -173 -340 -343 -23 -87 -23 -4319 0 -4406
45 -172 169 -297 340 -342 88 -22 2031 -23 2118 0 172 45 297 169 342 340 12
48 15 128 15 416 l0 357 58 33 c89 50 185 153 229 245 35 73 38 86 38 169 0
146 -12 165 -283 438 -254 256 -282 277 -387 277 -98 0 -139 -27 -310 -199
-168 -169 -161 -166 -280 -136 -115 29 -203 81 -295 174 -94 95 -139 172 -165
282 -27 115 -32 105 136 267 187 182 204 209 204 317 0 58 -5 90 -19 115 -25
48 -532 556 -581 583 -54 29 -183 31 -235 3 -49 -27 -164 -139 -216 -213 -100
-139 -144 -277 -151 -473 -12 -339 118 -689 396 -1060 226 -303 581 -598 838
-699 81 -32 133 -5 133 67 0 36 -27 61 -110 99 -349 160 -735 554 -937 957
-65 130 -95 207 -130 331 -33 121 -42 326 -19 435 30 140 124 297 228 380 55
43 90 50 136 26 29 -16 469 -455 496 -496 9 -13 16 -40 16 -59 0 -31 -16 -51
-169 -205 -94 -95 -175 -184 -180 -199 -37 -96 22 -321 120 -464 132 -191 338
-314 576 -343 77 -10 96 -9 120 3 16 9 101 90 189 181 223 230 196 234 502
-77 228 -232 247 -269 205 -393 -24 -72 -137 -183 -218 -214 -77 -29 -241 -38
-406 -20 -64 6 -127 9 -138 5 -22 -7 -51 -52 -51 -80 0 -9 12 -29 28 -44 24
-24 39 -29 130 -39 56 -7 157 -12 223 -12 l120 0 -3 -352 c-3 -348 -3 -354
-27 -400 -30 -61 -88 -119 -149 -149 l-47 -24 -1030 0 -1030 0 -47 24 c-61 30
-119 88 -149 149 l-24 47 0 2175 0 2175 24 47 c30 61 89 120 149 150 l47 23
1030 0 1030 0 47 -23 c60 -30 120 -90 150 -150 22 -46 23 -55 26 -367 1 -211
6 -327 13 -342 7 -12 25 -27 40 -34 37 -15 82 2 98 37 18 41 15 615 -4 689
-45 173 -184 308 -353 344 -78 16 -2038 14 -2107 -3z"/>
<path d="M1722 4720 c-12 -11 -24 -31 -28 -44 -7 -28 18 -81 41 -90 9 -3 249
-6 533 -6 545 1 535 0 560 47 18 34 14 52 -17 84 l-29 29 -519 0 c-508 0 -520
0 -541 -20z"/>
<path d="M2881 3913 c-33 -28 -37 -75 -9 -106 18 -20 41 -30 101 -42 262 -53
501 -188 717 -404 217 -218 351 -451 405 -706 21 -101 31 -121 66 -136 39 -16
83 3 99 42 10 23 10 43 1 92 -77 403 -348 796 -721 1045 -144 96 -321 173
-485 213 -99 24 -147 24 -174 2z"/>
<path d="M2845 3405 c-28 -28 -32 -70 -10 -102 9 -13 43 -29 87 -43 300 -91
579 -362 674 -654 29 -91 51 -116 100 -116 71 0 91 58 55 161 -101 292 -336
557 -618 698 -76 38 -202 81 -238 81 -14 0 -37 -11 -50 -25z"/>
<path d="M2115 491 c-51 -22 -65 -91 -25 -131 18 -18 33 -20 173 -20 148 0
154 1 175 23 27 29 28 77 3 108 -18 23 -25 24 -163 26 -78 1 -152 -1 -163 -6z"/>
</g>
</svg>
