<?xml version="1.0" standalone="no"?>
<!DOCTYPE svg PUBLIC "-//W3C//DTD SVG 20010904//EN"
 "http://www.w3.org/TR/2001/REC-SVG-20010904/DTD/svg10.dtd">
<svg version="1.0" xmlns="http://www.w3.org/2000/svg"
 width="512.000000pt" height="512.000000pt" viewBox="0 0 512.000000 512.000000"
 preserveAspectRatio="xMidYMid meet">

<g transform="translate(0.000000,512.000000) scale(0.100000,-0.100000)"
fill="#000000" stroke="none">
<path d="M1970 5098 c-30 -15 -53 -37 -67 -63 -22 -39 -23 -49 -23 -317 l0
-277 -283 -3 -284 -3 -40 -27 c-74 -49 -78 -66 -81 -380 l-3 -277 -287 -3
c-280 -3 -288 -4 -319 -26 -17 -12 -41 -42 -52 -65 -20 -41 -21 -60 -21 -328
0 -255 2 -288 19 -325 22 -47 59 -80 110 -95 24 -7 241 -8 666 -5 347 3 648 4
670 3 52 -1 1288 -1 1340 0 22 1 324 0 670 -3 425 -3 642 -2 666 5 51 15 88
48 110 95 17 37 19 70 19 326 0 320 -5 344 -71 391 -34 24 -36 24 -321 27
l-287 3 -3 283 -3 283 -27 41 c-50 75 -56 77 -375 80 l-282 3 -3 287 c-3 285
-3 287 -27 321 -13 18 -42 42 -65 52 -39 17 -78 19 -671 19 l-631 0 -44 -22z
m1270 -403 l0 -255 -595 0 -595 0 0 255 0 255 595 0 595 0 0 -255z m-680 -685
l0 -260 -595 0 -595 0 0 260 0 260 595 0 595 0 0 -260z m1365 0 l0 -255 -595
0 -595 0 -3 258 -2 257 597 -2 598 -3 0 -255z m-2045 -685 l0 -255 -600 0
-600 0 0 255 0 255 600 0 600 0 0 -255z m1360 0 l0 -255 -595 0 -595 0 0 255
0 255 595 0 595 0 0 -255z m1370 0 l0 -255 -600 0 -600 0 0 255 0 255 600 0
600 0 0 -255z"/>
<path d="M150 2547 c-49 -16 -123 -93 -138 -143 -9 -31 -12 -211 -12 -705 l0
-664 24 -51 c28 -59 75 -100 142 -120 60 -18 650 -20 719 -3 24 6 62 27 84 45
l40 35 99 -3 99 -3 -38 -100 c-30 -78 -38 -114 -38 -165 -1 -106 52 -195 144
-242 48 -25 151 -35 196 -19 26 9 35 9 38 0 10 -31 86 -99 132 -118 53 -23
145 -30 189 -13 21 8 28 4 52 -29 64 -88 174 -133 272 -110 l49 11 49 -54
c107 -120 275 -128 387 -18 27 26 50 54 53 62 4 12 36 0 154 -57 169 -81 216
-92 296 -69 138 40 223 171 198 307 -7 38 -6 41 29 59 93 47 155 177 133 277
-9 39 -8 40 25 59 57 30 112 101 130 166 l16 58 220 0 219 0 39 -34 c22 -19
60 -39 84 -45 69 -17 659 -15 719 3 67 20 114 61 142 120 l24 51 0 664 c0 494
-3 674 -12 705 -16 54 -90 128 -144 144 -30 9 -167 12 -498 12 -502 0 -499 0
-563 -62 l-31 -30 -1316 4 -1315 4 -28 26 c-61 58 -61 58 -565 57 -309 -1
-475 -5 -498 -12z m949 -171 c17 -20 -224 -1325 -247 -1344 -13 -10 -87 -12
-335 -10 -302 3 -319 4 -333 22 -12 17 -14 124 -14 663 0 630 0 643 20 663 19
19 33 20 459 20 361 0 441 -2 450 -14z m3833 -3 c17 -15 18 -49 18 -663 0
-542 -2 -649 -14 -666 -14 -18 -31 -19 -333 -22 -248 -2 -322 0 -335 10 -24
19 -264 1324 -247 1344 9 12 86 14 452 14 396 0 442 -2 459 -17z m-2562 -76
c0 -2 -110 -125 -245 -273 -285 -313 -300 -336 -299 -459 0 -66 5 -89 26 -131
79 -153 265 -217 413 -141 40 20 339 279 537 464 l26 25 381 -193 c210 -107
395 -205 412 -219 44 -37 51 -95 14 -138 -46 -55 -75 -53 -223 17 -142 68
-165 70 -202 24 -22 -28 -26 -64 -10 -94 6 -11 69 -48 140 -84 103 -52 133
-71 146 -96 30 -59 -6 -132 -71 -145 -26 -4 -57 6 -160 55 -70 34 -141 61
-157 61 -60 0 -101 -84 -64 -132 7 -10 69 -45 138 -78 69 -34 134 -70 144 -81
28 -31 25 -100 -5 -133 -45 -48 -75 -45 -219 24 -139 67 -162 70 -202 30 -23
-23 -26 -76 -6 -105 7 -11 69 -47 136 -80 67 -32 128 -68 135 -80 27 -41 22
-95 -10 -128 -46 -45 -66 -42 -232 35 l-151 70 20 57 c53 148 2 294 -125 355
-29 14 -73 28 -99 32 -45 6 -48 8 -54 43 -18 99 -96 189 -187 216 -60 18 -98
19 -152 4 -32 -9 -40 -8 -43 2 -11 33 -101 107 -152 124 -64 21 -149 16 -205
-13 l-39 -19 -34 33 c-55 54 -97 69 -187 69 -91 0 -137 -17 -192 -72 l-33 -34
-113 3 -113 3 93 500 c50 275 99 542 109 593 l16 92 549 0 c302 0 549 -2 549
-3z m1480 -5 c0 -8 207 -1134 214 -1164 4 -17 -8 -18 -150 -18 l-153 0 24 36
c51 75 58 190 16 271 -41 82 -61 93 -674 404 l-158 81 31 34 c38 44 46 74 26
112 -17 33 -33 42 -80 42 -27 0 -76 -40 -380 -316 -192 -173 -363 -322 -379
-331 -72 -37 -178 15 -193 95 -13 67 8 98 202 312 308 338 397 432 418 440 27
11 1236 13 1236 2z m-2282 -1267 c16 -14 32 -36 36 -49 10 -41 -103 -347 -142
-383 -58 -54 -162 -8 -162 71 0 57 105 326 141 359 38 35 86 36 127 2z m383
-64 c44 -44 39 -79 -41 -291 -78 -207 -94 -230 -161 -230 -52 0 -99 43 -99 89
0 17 32 115 70 218 54 145 77 194 100 216 42 38 92 37 131 -2z m356 -136 c40
-46 38 -62 -32 -250 -36 -98 -73 -193 -81 -211 -19 -40 -73 -68 -114 -59 -37
8 -80 58 -80 93 0 33 137 401 159 426 38 44 111 44 148 1z m297 -271 c40 -40
38 -68 -11 -203 -53 -144 -72 -170 -129 -178 -33 -4 -45 -1 -72 22 -50 42 -50
72 2 208 54 143 67 164 109 175 43 11 72 4 101 -24z"/>
<path d="M510 2201 c-107 -38 -181 -158 -166 -269 18 -130 123 -222 253 -222
143 0 252 110 253 253 0 178 -171 298 -340 238z m123 -163 c53 -28 64 -92 22
-133 -65 -65 -173 9 -133 91 13 28 50 54 76 54 7 0 23 -5 35 -12z"/>
<path d="M4454 2209 c-108 -31 -184 -132 -184 -243 1 -147 108 -256 253 -256
97 0 175 45 220 129 37 67 43 124 22 197 -38 130 -182 211 -311 173z m127
-185 c37 -34 32 -99 -10 -131 -49 -38 -131 6 -131 69 1 75 86 112 141 62z"/>
</g>
</svg>
