<?xml version="1.0" standalone="no"?>
<!DOCTYPE svg PUBLIC "-//W3C//DTD SVG 20010904//EN"
 "http://www.w3.org/TR/2001/REC-SVG-20010904/DTD/svg10.dtd">
<svg version="1.0" xmlns="http://www.w3.org/2000/svg"
 width="512.000000pt" height="512.000000pt" viewBox="0 0 512.000000 512.000000"
 preserveAspectRatio="xMidYMid meet">

<g transform="translate(0.000000,512.000000) scale(0.100000,-0.100000)"
fill="#000000" stroke="none">
<path d="M1690 4944 c-84 -18 -131 -37 -203 -80 l-58 -36 -44 41 c-69 64 -78
61 -222 -81 -113 -112 -123 -125 -123 -158 0 -43 22 -67 68 -76 30 -6 38 -1
115 75 46 44 88 81 93 81 12 0 444 -432 444 -445 0 -6 -113 -123 -250 -260
l-250 -250 -227 227 -227 227 83 86 c78 79 83 87 77 118 -8 41 -39 67 -80 67
-28 0 -49 -17 -154 -123 -67 -68 -122 -132 -122 -141 0 -24 18 -56 51 -91 l29
-31 -54 -53 -55 -54 -42 37 c-73 62 -83 58 -242 -102 -113 -114 -137 -144
-137 -168 0 -24 45 -74 308 -336 262 -263 312 -308 336 -308 24 0 54 24 168
137 160 159 166 172 101 243 l-36 41 53 54 54 55 31 -29 c35 -33 67 -51 90
-51 10 0 49 31 89 70 l72 69 157 -157 157 -157 -181 -180 c-175 -175 -209
-215 -209 -251 0 -10 56 -74 125 -143 l125 -127 -37 -89 c-20 -50 -38 -92 -39
-94 -2 -2 -214 119 -473 268 -268 155 -480 271 -494 271 -14 0 -34 -8 -45 -17
-21 -19 -326 -543 -346 -594 -21 -58 -7 -69 400 -304 210 -121 391 -227 403
-235 22 -15 15 -19 -194 -140 -134 -77 -230 -139 -251 -162 -47 -53 -70 -136
-55 -202 11 -50 331 -617 374 -664 13 -14 17 -26 11 -31 -5 -5 -103 -64 -218
-130 -115 -67 -215 -129 -222 -138 -7 -10 -14 -29 -14 -42 0 -30 95 -198 120
-211 32 -17 70 -11 95 15 32 31 32 65 0 120 l-26 43 93 55 c51 29 244 141 428
247 184 106 344 198 356 205 19 12 36 -2 245 -211 217 -218 259 -254 295 -254
10 0 74 56 143 125 l126 124 103 -41 102 -42 0 -174 c0 -170 0 -173 25 -197
l24 -25 431 0 431 0 24 25 c25 24 25 27 25 197 l0 174 102 42 102 42 126 -125
c70 -69 134 -125 144 -125 9 0 29 6 44 14 33 18 585 572 601 603 6 12 11 29
11 39 0 9 -56 74 -125 144 l-125 126 42 102 42 102 174 0 c170 0 173 0 197 25
33 32 33 78 0 110 -24 25 -24 25 -235 25 -207 0 -243 -5 -262 -34 -4 -6 -17
-40 -29 -76 -12 -36 -41 -107 -65 -159 -24 -52 -44 -103 -44 -114 0 -12 46
-67 117 -139 l117 -119 -227 -226 -226 -227 -119 117 c-79 77 -126 117 -141
117 -12 0 -52 -15 -89 -34 -37 -18 -105 -47 -152 -64 -47 -17 -92 -33 -101
-37 -31 -12 -39 -53 -39 -210 l0 -155 -320 0 -320 0 0 155 c0 157 -8 198 -39
210 -9 4 -54 20 -101 37 -47 17 -115 46 -152 64 -37 19 -77 34 -89 34 -15 0
-62 -40 -141 -117 l-119 -117 -226 227 -227 226 117 119 c77 79 117 126 117
141 0 12 -15 52 -34 89 -18 37 -47 105 -64 152 -17 47 -33 92 -37 101 -12 31
-53 39 -210 39 l-155 0 0 320 0 320 155 0 c157 0 198 8 210 39 4 9 20 54 37
101 17 47 46 115 64 152 19 37 34 77 34 89 0 15 -40 62 -117 141 l-117 119
227 226 226 227 119 -117 c72 -71 127 -117 139 -117 11 0 62 20 114 44 52 24
123 53 159 65 36 12 70 25 76 29 28 18 34 56 34 206 l0 156 320 0 320 0 0
-155 c0 -157 8 -198 39 -210 9 -4 54 -20 101 -37 47 -17 115 -46 152 -64 37
-19 77 -34 89 -34 15 0 62 40 141 117 l119 117 226 -227 227 -226 -117 -119
c-77 -79 -117 -126 -117 -141 0 -12 15 -52 34 -89 19 -38 49 -110 67 -160 46
-133 45 -132 240 -132 l159 0 0 -215 c0 -216 0 -216 25 -240 32 -33 78 -33
110 0 l25 24 0 271 0 271 -25 24 c-24 25 -27 25 -197 25 l-174 0 -42 102 -42
102 125 126 c69 70 125 135 125 144 0 35 -26 65 -238 278 l-217 218 80 -6
c323 -25 627 184 733 504 22 66 25 96 26 207 1 110 -3 142 -23 208 -28 89 -59
127 -105 127 -26 0 -53 -23 -193 -163 -144 -144 -163 -166 -163 -195 0 -44 38
-82 81 -82 27 0 48 16 134 101 112 110 115 110 115 15 0 -147 -61 -296 -163
-398 -112 -112 -235 -163 -397 -163 -162 0 -282 50 -394 161 -111 112 -161
232 -161 394 0 115 14 170 69 274 87 167 292 286 489 286 34 0 67 -4 74 -8 8
-5 -48 -68 -173 -192 -182 -181 -220 -230 -208 -267 4 -10 90 -102 193 -205
172 -174 188 -188 222 -188 46 0 79 33 79 79 0 30 -17 51 -150 185 l-149 151
219 221 c191 191 220 224 220 251 0 45 -38 76 -127 104 -66 20 -97 24 -208 23
-148 -1 -230 -22 -350 -88 -130 -74 -264 -227 -315 -364 -52 -137 -62 -309
-26 -438 l14 -52 -67 -65 c-65 -64 -66 -65 -85 -46 -18 17 -36 19 -203 19
l-183 0 -12 25 c-6 14 -9 27 -7 29 2 2 35 12 73 22 51 14 74 26 90 47 l21 28
-23 86 c-13 47 -21 88 -18 90 2 2 37 13 78 23 84 22 118 52 118 103 0 17 5
105 11 195 8 112 8 171 1 187 -12 25 -440 277 -483 283 -17 2 -35 -4 -52 -20
-14 -12 -162 -259 -328 -548 -166 -289 -304 -527 -306 -530 -2 -2 -71 63 -153
145 l-149 149 39 43 c54 58 52 81 -12 149 l-51 55 17 37 c53 110 153 200 276
247 74 28 90 45 90 93 0 39 -29 63 -133 112 -144 68 -276 85 -417 54z m252
-159 c15 -6 4 -20 -57 -77 -41 -38 -92 -96 -113 -128 l-38 -59 -95 95 c-77 78
-91 96 -79 105 33 23 121 60 162 69 46 10 192 6 220 -5z m1145 -126 l112 -64
-5 -75 c-3 -41 -7 -98 -10 -125 l-5 -51 -91 -24 c-72 -20 -95 -31 -111 -52
-21 -27 -21 -29 -2 -105 10 -43 20 -83 22 -89 2 -7 -27 -20 -74 -32 -117 -32
-144 -72 -103 -152 11 -22 20 -42 20 -45 0 -3 -70 -5 -155 -5 -152 0 -156 -1
-180 -25 -24 -23 -25 -30 -25 -142 l0 -118 -91 92 -92 91 298 516 298 516 41
-23 c23 -13 91 -52 153 -88z m-1007 -934 l314 -314 -58 -26 -59 -26 -127 125
c-70 70 -134 126 -144 126 -28 0 -68 -25 -111 -69 l-39 -41 -158 157 -158 158
112 112 c62 62 113 113 113 113 0 0 142 -142 315 -315z m-1105 -25 l-55 -55
-112 112 -113 113 55 55 55 55 112 -112 113 -113 -55 -55z m-107 -337 c-29
-29 -57 -53 -63 -53 -13 0 -445 432 -445 445 0 5 24 33 52 62 l53 53 227 -227
228 -228 -52 -52z m2791 374 c22 -36 133 -146 166 -165 19 -10 13 -19 -80
-111 l-100 -101 -102 42 -103 42 0 70 0 71 92 92 c51 51 96 93 99 93 4 0 17
-15 28 -33z m-2971 -943 c17 -10 32 -23 32 -28 0 -5 -27 -56 -60 -113 -36 -61
-60 -114 -60 -132 0 -38 27 -69 66 -77 43 -8 71 20 140 141 31 55 58 101 59
103 4 4 135 -73 135 -80 0 -3 -28 -54 -62 -113 -70 -124 -76 -156 -33 -193 22
-18 35 -22 59 -18 39 8 53 24 122 147 l56 98 41 -21 42 -22 -34 -7 c-65 -14
-65 -16 -71 -262 l-5 -223 -370 213 c-203 118 -376 217 -382 221 -9 6 17 60
93 192 58 102 113 195 121 208 l14 23 32 -19 c18 -11 47 -28 65 -38z m434
-1161 l3 -81 -36 -6 c-58 -9 -129 -64 -159 -121 -38 -74 -36 -164 5 -231 102
-164 331 -156 418 15 48 96 29 204 -49 277 l-35 34 123 0 124 0 42 -102 41
-103 -126 -127 c-129 -131 -132 -135 -109 -188 5 -11 -33 -38 -154 -108 -160
-92 -198 -106 -233 -79 -16 12 -331 550 -348 594 -12 33 7 76 44 98 18 11 124
72 237 137 189 109 205 116 207 96 1 -13 4 -60 5 -105z m77 -269 c27 -35 26
-66 -2 -100 -17 -20 -33 -27 -57 -27 -24 0 -40 7 -57 27 -28 34 -29 65 -2 100
16 20 29 26 59 26 30 0 43 -6 59 -26z"/>
<path d="M2845 2793 c-125 -17 -292 -91 -392 -173 -118 -96 -214 -241 -263
-395 -34 -106 -39 -292 -12 -406 49 -202 167 -374 333 -485 152 -101 291 -139
479 -131 142 5 219 25 340 88 309 160 481 512 416 851 -17 90 -66 218 -104
273 -23 33 -34 41 -66 43 -46 4 -86 -27 -86 -67 0 -14 18 -61 39 -106 51 -103
76 -222 68 -325 -21 -265 -194 -488 -441 -566 -310 -98 -630 40 -772 333 -118
243 -68 530 125 723 198 198 484 245 736 120 44 -22 92 -40 106 -40 40 0 71
40 67 86 -2 32 -10 43 -43 66 -55 38 -183 87 -273 104 -69 13 -188 16 -257 7z"/>
</g>
</svg>
