<?xml version="1.0" standalone="no"?>
<!DOCTYPE svg PUBLIC "-//W3C//DTD SVG 20010904//EN"
 "http://www.w3.org/TR/2001/REC-SVG-20010904/DTD/svg10.dtd">
<svg version="1.0" xmlns="http://www.w3.org/2000/svg"
 width="512.000000pt" height="512.000000pt" viewBox="0 0 512.000000 512.000000"
 preserveAspectRatio="xMidYMid meet">

<g transform="translate(0.000000,512.000000) scale(0.100000,-0.100000)"
fill="#000000" stroke="none">
<path d="M2092 5027 c-34 -19 -43 -38 -111 -218 l-63 -167 -172 -7 c-190 -7
-226 -15 -256 -52 -25 -32 -26 -100 -2 -129 9 -12 76 -67 147 -124 72 -57 133
-106 137 -109 4 -4 -15 -89 -43 -189 -45 -164 -49 -187 -39 -218 16 -46 63
-77 110 -71 23 3 89 40 189 105 l154 100 38 -23 c20 -13 92 -60 159 -105 128
-84 156 -93 209 -66 31 17 51 54 51 96 0 16 -21 105 -46 196 -38 138 -43 169
-32 179 7 7 70 58 140 113 70 56 134 112 142 124 31 43 15 115 -31 145 -22 15
-63 20 -216 28 l-189 10 -64 170 c-48 127 -72 177 -94 198 -33 30 -79 35 -118
14z m113 -399 c54 -137 58 -139 227 -149 73 -4 135 -8 137 -8 2 -1 -45 -40
-103 -87 -59 -47 -112 -98 -118 -112 -9 -22 -4 -53 25 -165 l35 -137 -36 22
c-21 12 -70 44 -111 71 -112 75 -123 74 -261 -16 -63 -42 -116 -75 -118 -73
-1 2 13 60 32 129 46 170 46 172 -89 279 -57 45 -102 84 -99 87 2 2 62 7 133
11 98 5 135 11 156 24 28 18 29 21 91 181 36 95 39 99 48 72 6 -16 28 -74 51
-129z"/>
<path d="M756 4508 c-18 -16 -46 -76 -89 -188 -34 -91 -66 -171 -70 -177 -5
-9 -36 -13 -90 -14 -45 0 -131 -4 -191 -8 -106 -7 -110 -8 -137 -39 -23 -25
-29 -42 -29 -76 0 -51 11 -63 198 -210 62 -50 111 -95 108 -102 -2 -6 -26 -91
-52 -187 l-47 -175 19 -38 c21 -43 75 -71 116 -61 13 4 92 52 177 107 l153
101 157 -103 c136 -89 162 -102 199 -102 37 -1 48 4 73 32 39 44 38 70 -16
265 -25 90 -45 167 -45 170 0 3 63 56 140 117 77 62 147 122 155 133 25 36 19
92 -13 128 -28 31 -33 33 -133 40 -57 4 -145 8 -196 8 l-92 1 -39 103 c-21 56
-51 134 -66 172 -15 39 -32 77 -39 86 -34 44 -111 52 -151 17z m126 -382 c57
-145 57 -145 232 -154 l138 -7 -108 -90 c-138 -114 -138 -114 -90 -285 19 -69
34 -126 32 -127 -1 -1 -53 32 -115 73 -82 54 -122 74 -146 74 -23 0 -65 -21
-149 -74 -64 -41 -116 -72 -116 -68 0 4 14 57 31 117 34 123 38 165 16 198 -8
12 -58 56 -110 97 -53 41 -96 78 -97 81 0 3 58 8 128 11 88 4 138 10 158 21
35 18 38 24 128 262 l8 20 9 -20 c5 -11 28 -69 51 -129z"/>
<path d="M3404 4511 c-26 -16 -39 -42 -94 -187 -35 -93 -68 -175 -73 -181 -6
-9 -38 -13 -91 -14 -44 0 -130 -4 -190 -8 -106 -7 -110 -8 -137 -39 -36 -40
-39 -96 -9 -135 11 -14 81 -74 155 -133 93 -74 134 -113 130 -123 -48 -163
-94 -355 -89 -375 9 -36 51 -75 90 -82 39 -7 63 5 247 128 l119 80 141 -93
c78 -51 155 -99 170 -107 64 -32 147 21 147 95 0 20 -20 110 -45 200 -25 90
-45 165 -45 167 0 2 63 55 140 116 77 62 147 122 155 133 25 36 19 92 -13 128
-28 31 -33 33 -133 40 -57 4 -145 8 -195 8 -78 1 -93 4 -99 19 -4 9 -31 80
-60 157 -72 188 -75 194 -106 211 -38 19 -78 18 -115 -5z m110 -366 c25 -65
54 -128 65 -139 24 -23 90 -34 221 -36 l95 -1 -49 -42 c-28 -23 -77 -65 -110
-92 -83 -70 -86 -82 -43 -240 20 -72 35 -131 33 -132 -1 -1 -53 32 -115 73
-82 53 -122 74 -145 74 -24 0 -66 -21 -149 -75 -65 -41 -117 -72 -117 -70 0 2
16 62 35 132 46 167 46 166 -93 280 l-107 88 131 6 c140 7 181 19 202 61 9 18
59 146 87 227 8 20 10 16 59 -114z"/>
<path d="M2018 3650 c-620 -98 -934 -785 -602 -1317 55 -89 178 -215 252 -258
29 -16 52 -32 52 -35 0 -3 -39 -17 -88 -33 -558 -177 -993 -680 -1093 -1267
-21 -123 -16 -160 22 -180 11 -6 510 -10 1331 -10 l1313 -1 37 -57 c40 -62
158 -183 223 -231 201 -146 472 -209 718 -166 357 62 646 319 753 670 26 83
28 103 28 265 1 190 -6 230 -67 375 -60 143 -192 308 -322 401 -74 53 -193
110 -292 141 -80 24 -103 27 -253 27 -132 1 -179 -3 -235 -18 -172 -46 -318
-130 -444 -253 l-74 -73 -46 43 c-147 138 -366 265 -573 333 -49 16 -88 31
-88 34 0 3 21 18 47 35 67 42 177 149 229 221 57 80 109 190 135 289 30 112
30 306 0 420 -100 374 -422 635 -806 650 -55 2 -126 0 -157 -5z m307 -176
c263 -70 463 -292 511 -565 61 -354 -163 -700 -516 -796 -103 -28 -282 -23
-385 10 -112 37 -197 90 -286 177 -85 84 -138 169 -177 288 -22 67 -26 94 -26
207 0 114 4 140 27 210 83 249 281 426 537 481 79 17 230 11 315 -12z m112
-1573 c261 -57 504 -181 696 -354 l58 -52 -35 -77 c-90 -194 -109 -449 -47
-649 l19 -59 -1214 0 c-1184 0 -1214 0 -1214 19 0 27 46 197 70 259 68 176
176 346 310 485 233 243 507 387 847 442 123 20 386 13 510 -14z m1768 -100
c291 -71 511 -288 586 -580 24 -94 25 -263 3 -364 -63 -282 -288 -514 -575
-593 -99 -28 -300 -25 -403 4 -223 64 -401 212 -501 417 -61 124 -79 204 -79
350 0 139 22 232 80 349 107 213 310 371 538 421 93 20 257 18 351 -4z"/>
<path d="M4334 1480 c-24 -12 -119 -100 -234 -215 l-193 -195 -92 88 c-78 77
-98 91 -143 101 -60 15 -101 8 -159 -25 -89 -51 -124 -177 -76 -269 12 -22 99
-117 195 -211 161 -159 177 -172 225 -183 57 -14 98 -9 154 20 49 25 579 568
601 617 24 51 23 126 -3 178 -47 98 -177 142 -275 94z m129 -161 c5 -9 7 -27
4 -40 -7 -29 -536 -559 -558 -559 -17 0 -339 321 -339 338 0 17 37 52 56 52 9
0 69 -52 133 -115 104 -101 122 -115 152 -115 31 0 54 19 264 230 187 188 234
230 254 228 13 -2 28 -10 34 -19z"/>
</g>
</svg>
