<?xml version="1.0" standalone="no"?>
<!DOCTYPE svg PUBLIC "-//W3C//DTD SVG 20010904//EN"
 "http://www.w3.org/TR/2001/REC-SVG-20010904/DTD/svg10.dtd">
<svg version="1.0" xmlns="http://www.w3.org/2000/svg"
 width="512.000000pt" height="512.000000pt" viewBox="0 0 512.000000 512.000000"
 preserveAspectRatio="xMidYMid meet">

<g transform="translate(0.000000,512.000000) scale(0.100000,-0.100000)"
fill="#000000" stroke="none">
<path d="M2992 4629 c-24 -12 -55 -37 -69 -55 -16 -21 -34 -34 -48 -34 -38 0
-156 -40 -225 -76 -130 -68 -266 -204 -322 -324 -13 -27 -25 -49 -29 -50 -3 0
-104 92 -224 205 -121 113 -235 213 -255 222 -46 23 -153 23 -196 1 -17 -9
-138 -118 -270 -242 -235 -221 -239 -224 -242 -193 -4 49 -21 84 -51 104 -23
16 -50 18 -233 18 l-208 0 -32 -33 -33 -32 -5 -313 -5 -312 -251 -238 c-208
-196 -255 -246 -273 -286 -36 -85 -23 -166 37 -233 46 -52 103 -78 167 -78 74
0 124 28 225 126 l90 87 0 -250 c0 -157 4 -262 11 -282 19 -55 73 -68 114 -26
l25 24 1 338 0 338 505 475 c278 261 511 479 518 484 10 7 68 -42 219 -183
l205 -193 6 -56 c4 -32 10 -125 14 -209 6 -130 10 -156 28 -180 25 -35 98 -73
140 -73 30 0 31 -2 37 -49 19 -162 158 -394 297 -496 l50 -37 0 -72 0 -72 -78
-38 -78 -38 -38 26 c-22 14 -51 26 -66 26 -15 0 -89 -22 -166 -50 -76 -27
-142 -50 -146 -50 -5 0 -8 123 -8 274 0 392 27 369 -425 364 -270 -3 -303 -5
-327 -21 -58 -39 -58 -43 -58 -541 l0 -456 -34 -44 c-57 -75 -102 -186 -121
-298 l-6 -38 -234 0 -235 0 0 229 c0 216 -1 230 -21 255 -25 31 -66 34 -100 7
l-24 -19 0 -254 c0 -235 1 -255 20 -287 11 -19 33 -43 48 -55 27 -20 42 -21
285 -24 l257 -3 -14 -349 c-12 -276 -12 -357 -2 -389 14 -50 72 -108 120 -122
24 -7 632 -9 1888 -7 l1851 3 39 31 c62 49 85 104 81 195 -4 90 -21 119 -73
119 -53 0 -75 -34 -75 -112 0 -101 8 -98 -251 -98 l-219 0 0 670 c0 474 3 670
11 670 20 0 157 -59 200 -86 61 -38 132 -115 168 -184 42 -79 58 -162 67 -349
6 -143 8 -156 30 -178 13 -13 30 -23 38 -23 30 0 65 23 74 49 11 33 -2 326
-18 401 -40 181 -165 348 -326 432 -38 20 -262 105 -499 188 -459 162 -464
163 -524 120 l-30 -20 -75 37 -76 37 0 69 0 69 89 86 c134 131 219 279 252
438 l13 62 43 5 c24 2 58 15 77 28 62 42 70 66 80 249 14 274 13 294 -18 334
-14 19 -34 37 -44 40 -15 5 -20 24 -30 105 -13 111 -52 232 -103 317 -70 118
-227 259 -344 309 -57 25 -157 55 -181 55 -11 0 -36 16 -55 36 -56 59 -96 74
-196 74 -70 0 -97 -4 -131 -21z m208 -139 c18 -18 20 -33 20 -168 0 -133 -2
-151 -19 -166 -26 -23 -82 -31 -125 -16 -49 16 -59 53 -54 209 3 115 4 124 27
142 33 27 123 27 151 -1z m-1277 -252 c89 -83 199 -187 244 -230 l83 -78 -8
-83 c-6 -66 -10 -82 -24 -85 -11 -2 -92 66 -228 195 -116 109 -223 204 -237
212 -18 9 -34 11 -50 5 -12 -5 -338 -306 -723 -669 -385 -363 -712 -665 -727
-671 -33 -14 -79 -1 -93 26 -14 25 -12 72 3 90 7 9 325 310 707 670 382 359
723 680 757 712 97 92 99 91 296 -94z m957 35 c0 -136 14 -178 73 -230 49 -43
98 -56 195 -52 70 4 86 8 124 34 24 17 54 51 68 75 21 39 25 61 28 168 3 67 7
122 11 122 4 0 35 -9 69 -21 132 -44 270 -162 335 -286 51 -98 68 -163 76
-295 8 -129 18 -151 72 -162 17 -3 29 -12 29 -21 0 -13 -93 -15 -835 -15 -742
0 -835 2 -835 15 0 9 13 18 31 22 45 9 56 36 63 154 10 188 68 323 190 444 70
70 159 125 240 151 69 21 66 26 66 -103z m-1910 -286 l0 -73 -135 -128 -135
-128 0 201 0 201 135 0 135 0 0 -73z m1380 -653 c0 -83 -1 -85 -22 -82 -21 3
-23 9 -26 86 -3 82 -3 82 23 82 25 0 25 -1 25 -86z m1395 -89 c-1 -191 -11
-240 -73 -360 -44 -85 -191 -237 -268 -278 -71 -37 -195 -67 -281 -67 -235 0
-436 130 -558 361 -52 99 -65 169 -65 357 l0 162 623 -2 622 -3 0 -170z m195
90 c0 -84 0 -85 -25 -85 -25 0 -25 1 -25 85 0 84 0 85 25 85 25 0 25 -1 25
-85z m-1952 -867 l-3 -273 -225 -81 c-124 -44 -240 -88 -257 -98 l-33 -17 0
371 0 370 260 0 260 0 -2 -272z m1122 -71 c93 -1 200 14 263 38 12 5 15 -6 19
-59 5 -79 21 -100 114 -148 35 -18 64 -36 64 -39 0 -12 -96 -69 -159 -94 -178
-73 -394 -73 -571 -2 -62 26 -170 87 -170 97 0 3 34 22 75 43 41 20 82 48 90
61 9 14 19 52 22 84 l5 58 72 -19 c46 -13 107 -20 176 -20z m-700 -372 c35
-172 68 -251 130 -312 23 -23 148 -108 276 -189 l234 -147 0 -384 0 -383 -575
0 -575 0 0 699 0 699 43 16 c91 34 432 154 434 152 1 -1 15 -69 33 -151z
m1685 73 c94 -33 189 -67 213 -75 l42 -15 0 -699 0 -699 -575 0 -575 0 2 386
3 386 220 138 c234 147 315 213 353 292 12 26 36 109 52 185 16 76 32 148 35
160 5 20 8 21 33 12 15 -6 104 -38 197 -71z m-1314 -138 c130 -50 202 -63 339
-64 95 0 146 6 215 23 102 25 247 91 319 147 l49 37 -7 -39 c-31 -167 -63
-238 -128 -281 -18 -12 -126 -80 -239 -151 l-206 -130 -229 145 c-126 79 -239
154 -251 165 -35 33 -61 95 -81 194 l-19 91 80 -53 c43 -29 115 -67 158 -84z
m-1031 -680 l0 -670 -220 0 c-276 0 -264 -7 -255 143 3 56 12 251 20 432 16
352 24 408 73 499 37 69 136 168 202 201 57 29 146 63 168 64 9 1 12 -139 12
-669z"/>
</g>
</svg>
