<?xml version="1.0" standalone="no"?>
<!DOCTYPE svg PUBLIC "-//W3C//DTD SVG 20010904//EN"
 "http://www.w3.org/TR/2001/REC-SVG-20010904/DTD/svg10.dtd">
<svg version="1.0" xmlns="http://www.w3.org/2000/svg"
 width="50.000000pt" height="50.000000pt" viewBox="0 0 50.000000 50.000000"
 preserveAspectRatio="xMidYMid meet">

<g transform="translate(0.000000,50.000000) scale(0.100000,-0.100000)"
fill="#000000" stroke="none">
<path d="M155 456 c-27 -13 -60 -34 -72 -47 -34 -37 -63 -110 -63 -159 0 -82
65 -185 131 -205 35 -12 30 -1 -19 35 -57 43 -81 83 -89 148 -18 158 147 279
292 213 72 -32 125 -113 125 -191 0 -72 -49 -154 -112 -186 -33 -17 -32 -30 1
-19 63 20 119 103 128 190 6 57 -19 129 -60 174 -33 36 -115 71 -167 71 -26 0
-66 -10 -95 -24z"/>
<path d="M200 305 c-51 -52 -47 -75 5 -25 l35 34 0 -147 c0 -91 4 -147 10
-147 6 0 10 56 10 147 l0 147 35 -34 c52 -50 56 -27 5 25 -24 25 -47 45 -50
45 -3 0 -26 -20 -50 -45z"/>
</g>
</svg>
