<svg width="17.000000" height="10.000000" viewBox="0 0 17 10" fill="none" xmlns="http://www.w3.org/2000/svg" xmlns:xlink="http://www.w3.org/1999/xlink">
	<desc>
			Created with Pixso.
	</desc>
	<defs/>
	<path id="" d="M7.72 9.09C7.86 9.09 7.99 9.04 8.1 8.92L15.9 1.12C16.01 1.01 16.07 0.88 16.07 0.74Q16.07 0.66 16.05 0.59Q16.01 0.46 15.9 0.35L15.07 -0.48C14.95 -0.6 14.83 -0.65 14.68 -0.65C14.54 -0.65 14.41 -0.6 14.3 -0.48L7.72 6.09L1.14 -0.48C1.03 -0.6 0.9 -0.65 0.75 -0.65C0.61 -0.65 0.48 -0.6 0.37 -0.48L-0.47 0.35Q-0.58 0.46 -0.62 0.59Q-0.64 0.66 -0.64 0.74C-0.64 0.88 -0.58 1.01 -0.47 1.12L7.33 8.92C7.44 9.04 7.57 9.09 7.72 9.09Z" fill="#FFFFFF" fill-opacity="1.000000" fill-rule="evenodd"/>
</svg>
